HIERARCHY
ROOT joint_Root
{
	OFFSET 0.0 0.0 0.0
	CHANNELS 6 Xposition Yposition Zposition Zrotation Xrotation Yrotation 
	JOINT Hips
	{
		OFFSET 4.5925 91.4895 -427.239
		CHANNELS 6 Xposition Yposition Zposition Zrotation Xrotation Yrotation 
		JOINT Spine
		{
			OFFSET 15.7357 0.0 0.0
			CHANNELS 6 Xposition Yposition Zposition Zrotation Xrotation Yrotation 
			JOINT Chest
			{
				OFFSET 8.98455 -0.406207 0.0
				CHANNELS 6 Xposition Yposition Zposition Zrotation Xrotation Yrotation 
				JOINT Neck
				{
					OFFSET 16.3773 0.0 0.0
					CHANNELS 6 Xposition Yposition Zposition Zrotation Xrotation Yrotation 
					JOINT Head
					{
						OFFSET 6.45672 0.0 0.0
						CHANNELS 6 Xposition Yposition Zposition Zrotation Xrotation Yrotation 
						End Site
						{
							OFFSET 0.0 0.0 0.0
						}
					}
				}
				JOINT Shoulder_L
				{
					OFFSET 12.9942 -0.242716 4.98039
					CHANNELS 6 Xposition Yposition Zposition Zrotation Xrotation Yrotation 
					JOINT UpperArm_L
					{
						OFFSET 5.34809 0.0 0.0
						CHANNELS 6 Xposition Yposition Zposition Zrotation Xrotation Yrotation 
						JOINT LowerArm_L
						{
							OFFSET 24.3286 1.87007e-05 0.0
							CHANNELS 6 Xposition Yposition Zposition Zrotation Xrotation Yrotation 
							JOINT Hand_L
							{
								OFFSET 22.2916 0.0 0.0
								CHANNELS 6 Xposition Yposition Zposition Zrotation Xrotation Yrotation 
								End Site
								{
									OFFSET 0.0 0.0 0.0
								}
							}
						}
					}
				}
				JOINT Shoulder_R
				{
					OFFSET 12.9945 -0.242716 -4.98039
					CHANNELS 6 Xposition Yposition Zposition Zrotation Xrotation Yrotation 
					JOINT UpperArm_R
					{
						OFFSET -5.34813 0.0 0.0
						CHANNELS 6 Xposition Yposition Zposition Zrotation Xrotation Yrotation 
						JOINT LowerArm_R
						{
							OFFSET -24.3289 0.000322201 0.0
							CHANNELS 6 Xposition Yposition Zposition Zrotation Xrotation Yrotation 
							JOINT Hand_R
							{
								OFFSET -22.2915 -0.000108084 0.0
								CHANNELS 6 Xposition Yposition Zposition Zrotation Xrotation Yrotation 
								End Site
								{
									OFFSET 0.0 0.0 0.0
								}
							}
						}
					}
				}
			}
		}
		JOINT UpperLeg_L
		{
			OFFSET -2.19248 -6.46944 0.0
			CHANNELS 6 Xposition Yposition Zposition Zrotation Xrotation Yrotation 
			JOINT LowerLeg_L
			{
				OFFSET 39.0811 0.0 -1.23785e-05
				CHANNELS 6 Xposition Yposition Zposition Zrotation Xrotation Yrotation 
				JOINT Foot_L
				{
					OFFSET 40.9854 0.0 -1.26872e-05
					CHANNELS 6 Xposition Yposition Zposition Zrotation Xrotation Yrotation 
					JOINT Toes_L
					{
						OFFSET 11.7543 0.0 0.0
						CHANNELS 6 Xposition Yposition Zposition Zrotation Xrotation Yrotation 
						End Site
						{
							OFFSET 0.0 0.0 0.0
						}
					}
				}
			}
		}
		JOINT UpperLeg_R
		{
			OFFSET -2.19251 6.46944 0.0
			CHANNELS 6 Xposition Yposition Zposition Zrotation Xrotation Yrotation 
			JOINT LowerLeg_R
			{
				OFFSET -39.0811 -0.00228153 -0.0401928
				CHANNELS 6 Xposition Yposition Zposition Zrotation Xrotation Yrotation 
				JOINT Foot_R
				{
					OFFSET -40.9854 0.0 0.0
					CHANNELS 6 Xposition Yposition Zposition Zrotation Xrotation Yrotation 
					JOINT Toes_R
					{
						OFFSET -11.7543 0.0 0.0
						CHANNELS 6 Xposition Yposition Zposition Zrotation Xrotation Yrotation 
						End Site
						{
							OFFSET 0.0 0.0 0.0
						}
					}
				}
			}
		}
	}
}
MOTION
Frames:	6
Frame Time:	0.0333333
0.000000 0.000000 0.000000 0.000000 0.000000 -0.000000 -1.853830 93.505500 -40.578800 90.386000 3.062650 -8.185580 15.735700 0.000005 -0.000001 29.821800 81.943300 -29.208200 8.984550 -0.406207 -0.000000 0.349347 -14.015300 1.273920 16.377300 -0.000001 -0.000001 -5.700600 -2.799620 1.491400 6.456720 -0.000001 -0.000000 -12.652800 3.559930 3.993460 12.994200 -0.242716 4.980390 -87.446600 -11.112200 -76.972100 5.348090 -0.000007 -0.000001 -60.120100 47.887100 -35.823000 24.328600 0.000019 0.000005 17.855500 -8.712520 -115.185000 22.291600 -0.000001 0.000005 5.831120 5.407570 -3.184640 12.994500 -0.242716 -4.980390 91.671300 -5.159470 -72.024400 -5.348130 -0.000001 -0.000004 -84.080600 40.641200 28.681700 -24.328900 0.000322 -0.000009 -5.588320 1.619460 -106.113000 -22.291500 -0.000108 -0.000004 11.153600 5.531320 -7.853520 -2.192480 -6.469440 -0.000000 -172.674000 -11.562400 8.420500 39.081100 -0.000007 -0.000012 0.153358 -0.170210 42.018300 40.985400 -0.000006 -0.000013 6.757100 -6.538060 -49.230300 11.754300 -0.000000 0.000003 -0.007074 -0.080303 -19.846000 -2.192510 6.469440 -0.000001 -179.258000 1.560290 148.000000 -39.081100 -0.002282 -0.040193 -0.033197 0.080268 24.458200 -40.985400 0.000008 0.000006 -0.517280 8.890650 -68.945800 -11.754300 -0.000006 -0.000006 -0.022218 -0.179278 -23.902100
0.000000 0.000000 0.000000 0.000000 0.000000 -0.000000 -1.599230 91.911000 -30.895900 91.844700 1.552980 -5.924330 15.735700 0.000005 -0.000001 34.334100 81.942500 -34.264800 8.984550 -0.406207 -0.000000 1.373430 -13.304600 0.299150 16.377300 -0.000001 -0.000001 -4.801280 -2.998050 2.064410 6.456720 -0.000001 -0.000000 -12.814300 3.221180 5.330790 12.994200 -0.242716 4.980390 -87.445300 -10.494300 -76.234500 5.348090 -0.000007 -0.000001 -58.042200 48.135700 -35.187100 24.328600 0.000019 0.000005 16.548900 -7.993930 -115.081000 22.291600 -0.000001 0.000005 6.752730 5.426430 -3.814730 12.994500 -0.242716 -4.980390 91.789000 -5.388510 -71.602400 -5.348130 -0.000001 -0.000004 -83.404300 39.265200 27.685500 -24.328900 0.000322 -0.000009 -5.097580 1.701350 -108.404000 -22.291500 -0.000108 -0.000004 11.309500 5.511610 -7.010520 -2.192480 -6.469440 -0.000000 -175.969000 -8.005220 10.895100 39.081100 -0.000007 -0.000012 0.165178 -0.121346 53.696700 40.985400 -0.000006 -0.000013 6.047180 -8.155910 -49.183900 11.754300 -0.000000 0.000003 -0.005845 -0.069431 -19.402400 -2.192510 6.469440 -0.000001 -178.688000 8.550320 150.350000 -39.081100 -0.002282 -0.040193 -0.110966 0.278449 22.314800 -40.985400 0.000008 0.000006 -5.648140 15.466000 -71.305700 -11.754300 -0.000006 -0.000006 -0.023927 -0.188144 -24.268200
0.000000 0.000000 0.000000 0.000000 0.000000 -0.000000 -1.833130 89.603900 -21.941300 90.007100 -0.537076 -5.300470 15.735700 0.000005 -0.000001 41.566400 82.550100 -40.712800 8.984550 -0.406207 -0.000000 2.244810 -11.181000 1.929400 16.377300 -0.000001 -0.000001 -3.877950 -3.019530 2.439450 6.456720 -0.000001 -0.000000 -13.610700 2.611310 5.784770 12.994200 -0.242716 4.980390 -87.787500 -8.299760 -75.014400 5.348090 -0.000007 -0.000001 -57.873200 47.016900 -32.332300 24.328600 0.000019 0.000005 16.754100 -7.442110 -113.281000 22.291600 -0.000001 0.000005 6.993090 5.435580 -4.131750 12.994500 -0.242716 -4.980390 91.076800 -3.249520 -71.657800 -5.348130 -0.000001 -0.000004 -79.013800 38.816700 24.331400 -24.328900 0.000322 -0.000009 -7.197630 2.825090 -111.313000 -22.291500 -0.000108 -0.000004 12.477100 5.506820 -6.807650 -2.192480 -6.469440 -0.000000 -174.898000 -7.916090 8.119570 39.081100 -0.000007 -0.000012 0.208337 -0.075848 69.993900 40.985400 -0.000006 -0.000013 3.505800 -6.806440 -47.725600 11.754300 -0.000000 0.000003 -0.005396 -0.065254 -19.232100 -2.192510 6.469440 -0.000001 -173.606000 11.002400 146.470000 -39.081100 -0.002282 -0.040193 0.226143 -0.340537 33.201100 -40.985400 0.000008 0.000006 6.503880 8.322800 -67.493000 -11.754300 -0.000006 -0.000006 -0.037066 -0.248196 -26.760400
0.000000 0.000000 0.000000 0.000000 0.000000 -0.000000 -2.147880 86.485200 -13.152400 88.451400 -1.819520 -4.217780 15.735700 0.000005 -0.000001 49.164700 82.834500 -47.503200 8.984550 -0.406207 -0.000000 3.254100 -9.426270 3.593510 16.377300 -0.000001 -0.000001 -4.230640 -2.904300 2.954180 6.456720 -0.000001 -0.000000 -12.040200 2.721000 4.999750 12.994200 -0.242716 4.980390 -88.491300 -5.381740 -74.315200 5.348090 -0.000007 -0.000001 -60.535600 44.512400 -25.231100 24.328600 0.000019 0.000005 18.123000 -6.945730 -110.279000 22.291600 -0.000001 0.000005 7.690910 5.434840 -4.103390 12.994500 -0.242716 -4.980390 89.937400 0.205343 -72.825200 -5.348130 -0.000001 -0.000004 -72.390700 38.784000 18.825700 -24.328900 0.000322 -0.000009 -8.869870 4.024760 -114.216000 -22.291500 -0.000108 -0.000004 13.513300 5.512730 -7.055070 -2.192480 -6.469440 -0.000000 -173.280000 -8.557220 3.457430 39.081100 -0.000007 -0.000012 0.270805 -0.012306 87.396300 40.985400 -0.000006 -0.000013 2.874790 -9.002600 -45.877000 11.754300 -0.000000 0.000003 -0.004898 -0.060482 -19.037600 -2.192510 6.469440 -0.000001 -173.387000 8.402310 145.062000 -39.081100 -0.002282 -0.040193 -0.067317 0.065119 47.302000 -40.985400 0.000008 0.000006 6.961930 4.743280 -67.719900 -11.754300 -0.000006 -0.000006 -0.012847 -0.123807 -21.621400
0.000000 0.000000 0.000000 0.000000 0.000000 -0.000000 -2.416870 83.835600 -5.160040 86.585400 -3.179970 -1.717970 15.735700 0.000005 -0.000001 61.445800 82.346800 -58.884500 8.984550 -0.406207 -0.000000 5.885980 -7.339900 5.500180 16.377300 -0.000001 -0.000001 -5.713410 -2.038240 2.668890 6.456720 -0.000001 -0.000000 -11.035500 2.666180 5.024690 12.994200 -0.242716 4.980390 -89.868900 -0.477570 -74.625300 5.348090 -0.000007 -0.000001 -63.748900 39.406700 -15.120700 24.328600 0.000019 0.000005 19.235800 -5.336020 -104.925000 22.291600 -0.000001 0.000005 9.443360 5.482910 -5.830290 12.994500 -0.242716 -4.980390 88.137900 6.684240 -74.389600 -5.348130 -0.000001 -0.000004 -60.908500 37.978500 8.062090 -24.328900 0.000322 -0.000009 -8.301870 4.087240 -116.034000 -22.291500 -0.000108 -0.000004 13.081600 5.518370 -7.293580 -2.192480 -6.469440 -0.000000 -172.602000 -8.779190 -2.918570 39.081100 -0.000007 -0.000012 0.142766 0.033610 103.243000 40.985400 -0.000006 -0.000013 7.633330 -10.583800 -43.455000 11.754300 -0.000000 0.000003 -0.004802 -0.059548 -18.999600 -2.192510 6.469440 -0.000001 -172.463000 3.903320 149.103000 -39.081100 -0.002282 -0.040193 -0.167998 0.111600 56.903500 -40.985400 0.000008 0.000006 8.201890 -0.484113 -78.198300 -11.754300 -0.000006 -0.000006 -0.003074 -0.041437 -18.258300
0.000000 0.000000 0.000000 0.000000 0.000000 -0.000000 -2.628410 82.675300 2.208450 86.554500 -1.274100 -1.830130 15.735700 0.000005 -0.000001 63.696800 82.251900 -60.773700 8.984550 -0.406207 -0.000000 6.343880 -6.883370 6.227170 16.377300 -0.000001 -0.000001 -5.250970 -1.754850 2.280750 6.456720 -0.000001 -0.000000 -12.031900 2.626900 5.030270 12.994200 -0.242716 4.980390 -90.639900 2.208360 -73.837200 5.348090 -0.000007 -0.000001 -67.070300 34.529700 -6.447880 24.328600 0.000019 0.000005 25.809200 -3.048280 -96.288100 22.291600 -0.000001 0.000005 12.631800 5.482590 -5.838660 12.994500 -0.242716 -4.980390 86.571400 11.774100 -73.638100 -5.348130 -0.000001 -0.000004 -50.418300 37.912800 -9.325500 -24.328900 0.000322 -0.000009 -4.303740 1.923780 -114.008000 -22.291500 -0.000108 -0.000004 12.344200 5.520370 -7.381110 -2.192480 -6.469440 -0.000000 -174.753000 -5.632410 -15.637700 39.081100 -0.000007 -0.000012 -0.189762 -0.087869 114.850000 40.985400 -0.000006 -0.000013 11.419700 -8.700220 -41.763300 11.754300 -0.000000 0.000003 -0.005148 -0.062899 -19.136100 -2.192510 6.469440 -0.000001 -172.756000 7.308880 153.826000 -39.081100 -0.002282 -0.040193 -0.072682 0.045161 59.243000 -40.985400 0.000008 0.000006 9.544910 -0.811505 -85.745700 -11.754300 -0.000006 -0.000006 -0.001343 -0.020171 -17.393300
